<svg xmlns="http://www.w3.org/2000/svg" width="20" height="20" viewBox="0 0 20 20"><g><g><path fill="#7a69e6" d="M8.583 12.115l7.68-9.175a.73.73 0 0 1 1.002-.086.725.725 0 0 1 .086.998l-8.164 9.76a.79.79 0 0 1-.517.259h-.035a.693.693 0 0 1-.5-.207L4.873 10.41a.705.705 0 0 1 0-.998.71.71 0 0 1 1 0zm6.939-9.623a.703.703 0 0 1-.967.225C11.138.599 6.771 1.098 3.906 3.938c-3.348 3.34-3.348 8.797 0 12.136 3.348 3.34 8.82 3.34 12.168 0 2.865-2.858 3.366-7.23 1.208-10.638a.702.702 0 0 1 1.19-.74c2.504 3.96 1.934 9.054-1.397 12.376A10.014 10.014 0 0 1 10 19.998c-2.555 0-5.126-.98-7.077-2.926-3.9-3.89-3.9-10.242 0-14.132A9.975 9.975 0 0 1 15.297 1.53a.698.698 0 0 1 .225.963z"/></g></g></svg>